<?xml version="1.0" encoding="utf-8" standalone="no"?>
<!DOCTYPE svg PUBLIC "-//W3C//DTD SVG 1.1//EN"
  "http://www.w3.org/Graphics/SVG/1.1/DTD/svg11.dtd">
<svg xmlns:xlink="http://www.w3.org/1999/xlink" width="280.2816pt" height="344.592pt" viewBox="0 0 280.2816 344.592" xmlns="http://www.w3.org/2000/svg" version="1.1">
 <metadata>
  <rdf:RDF xmlns:dc="http://purl.org/dc/elements/1.1/" xmlns:cc="http://creativecommons.org/ns#" xmlns:rdf="http://www.w3.org/1999/02/22-rdf-syntax-ns#">
   <cc:Work>
    <dc:type rdf:resource="http://purl.org/dc/dcmitype/StillImage"/>
    <dc:date>2026-08-01T09:18:35.976709</dc:date>
    <dc:format>image/svg+xml</dc:format>
    <dc:creator>
     <cc:Agent>
      <dc:title>Matplotlib v3.11.1, https://matplotlib.org/</dc:title>
     </cc:Agent>
    </dc:creator>
   </cc:Work>
  </rdf:RDF>
 </metadata>
 <defs>
  <style type="text/css">*{stroke-linejoin: round; stroke-linecap: butt}</style>
 </defs>
 <g id="figure_1">
  <g id="patch_1">
   <path d="M 0 344.592 
L 280.2816 344.592 
L 280.2816 0 
L 0 0 
z
" style="fill: #ffffff"/>
  </g>
  <g id="axes_1">
   <g id="patch_2">
    <path d="M 11.52 333.072 
L 268.7616 333.072 
L 268.7616 11.52 
L 11.52 11.52 
z
" style="fill: #ffffff"/>
   </g>
   <g id="line2d_1">
    <path d="M 11.52 172.296 
L 268.7616 172.296 
" clip-path="url(#pa393b3a5a9)" style="fill: none; stroke: #2e2e2e; stroke-width: 1.3; stroke-linecap: square"/>
   </g>
   <g id="line2d_2">
    <path d="M 46.3548 333.072 
L 46.3548 11.52 
" clip-path="url(#pa393b3a5a9)" style="fill: none; stroke: #2e2e2e; stroke-width: 1.3; stroke-linecap: square"/>
   </g>
   <g id="patch_3">
    <path d="M 87.8886 172.296 
C 87.8886 167.873374 87.182201 163.479 85.796137 159.279185 
C 84.410073 155.07937 82.362053 151.127771 79.729584 147.573938 
" clip-path="url(#pa393b3a5a9)" style="fill: none; stroke: #8e6f3e; stroke-width: 2.1; stroke-linejoin: miter"/>
   </g>
   <g id="patch_4">
    <path d="M 86.189219 201.802977 
C 89.331198 197.561306 91.77561 192.844881 93.429944 187.832199 
C 95.084279 182.819516 95.9274 177.574618 95.9274 172.296 
" clip-path="url(#pa393b3a5a9)" style="fill: none; stroke: #4f6d7a; stroke-width: 2.1; stroke-linejoin: miter"/>
   </g>
   <g id="matplotlib.axis_1"/>
   <g id="matplotlib.axis_2"/>
   <g id="line2d_3">
    <path d="M 191.0532 279.48 
L 191.0532 65.112 
" clip-path="url(#pa393b3a5a9)" style="fill: none; stroke-dasharray: 4.05,4.05; stroke-dashoffset: 0; stroke: #6f727b; stroke-width: 1.35"/>
   </g>
   <g id="patch_5">
    <path d="M 261.11689 172.296 
Q 263.940729 172.296 265.311125 172.296 
" style="fill: none; stroke: #2e2e2e; stroke-width: 1.3; stroke-linecap: round"/>
    <path d="M 260.511125 169.896 
L 265.311125 172.296 
L 260.511125 174.696 
" style="fill: none; stroke: #2e2e2e; stroke-width: 1.3; stroke-linecap: round"/>
   </g>
   <g id="patch_6">
    <path d="M 46.3548 19.16471 
Q 46.3548 16.340871 46.3548 14.970475 
" style="fill: none; stroke: #2e2e2e; stroke-width: 1.3; stroke-linecap: round"/>
    <path d="M 43.9548 19.770475 
L 46.3548 14.970475 
L 48.7548 19.770475 
" style="fill: none; stroke: #2e2e2e; stroke-width: 1.3; stroke-linecap: round"/>
   </g>
   <g id="text_1">
    <!-- $\operatorname{Re}z$ -->
    <g transform="translate(245.2416 194.275268)">
     <text>
      <tspan x="0" y="-0.25" style="font-size: 12px; font-family: 'DejaVu Sans'">R</tspan>
      <tspan x="8.337891" y="-0.25" style="font-size: 12px; font-family: 'DejaVu Sans'">e</tspan>
      <tspan x="17.668984" y="-0.25" style="font-style: oblique; font-size: 12px; font-family: 'DejaVu Sans'">z</tspan>
     </text>
    </g>
   </g>
   <g id="text_2">
    <!-- $\operatorname{Im}z$ -->
    <g transform="translate(13.72416 20.637188)">
     <text>
      <tspan x="0" y="-0.25" style="font-size: 12px; font-family: 'DejaVu Sans'">I</tspan>
      <tspan x="3.539062" y="-0.25" style="font-size: 12px; font-family: 'DejaVu Sans'">m</tspan>
      <tspan x="17.176797" y="-0.25" style="font-style: oblique; font-size: 12px; font-family: 'DejaVu Sans'">z</tspan>
     </text>
    </g>
   </g>
   <g id="text_3">
    <!-- $+\theta$ -->
    <g style="fill: #8e6f3e" transform="translate(90.30024 162.64944)">
     <text>
      <tspan x="0" y="-0.78125" style="font-size: 12px; font-family: 'DejaVu Sans'; fill: #8e6f3e">+</tspan>
      <tspan x="10.054688" y="-0.78125" style="font-style: oblique; font-size: 12px; font-family: 'DejaVu Sans'; fill: #8e6f3e">θ</tspan>
     </text>
    </g>
   </g>
   <g id="text_4">
    <!-- $-\theta$ -->
    <g style="fill: #4f6d7a" transform="translate(96.19536 194.80464)">
     <text>
      <tspan x="0" y="-0.78125" style="font-size: 12px; font-family: 'DejaVu Sans'; fill: #4f6d7a">−</tspan>
      <tspan x="10.054688" y="-0.78125" style="font-style: oblique; font-size: 12px; font-family: 'DejaVu Sans'; fill: #4f6d7a">θ</tspan>
     </text>
    </g>
   </g>
   <g id="text_5">
    <!-- $z=x+\mathrm{i}y$ -->
    <g transform="translate(198.02016 55.798148)">
     <text>
      <tspan x="0" y="-0.875" style="font-style: oblique; font-size: 12px; font-family: 'DejaVu Sans'">z</tspan>
      <tspan x="21.029297" y="-0.875" style="font-style: oblique; font-size: 12px; font-family: 'DejaVu Sans'">x</tspan>
      <tspan x="46.195312" y="-0.875" style="font-style: oblique; font-size: 12px; font-family: 'DejaVu Sans'">y</tspan>
      <tspan x="8.636719" y="-0.875" style="font-size: 12px; font-family: 'DejaVu Sans'">=</tspan>
      <tspan x="30.46875" y="-0.875" style="font-size: 12px; font-family: 'DejaVu Sans'">+</tspan>
      <tspan x="42.861328" y="-0.875" style="font-size: 12px; font-family: 'DejaVu Sans'">i</tspan>
     </text>
    </g>
   </g>
   <g id="text_6">
    <!-- $\bar z=x-\mathrm{i}y$ -->
    <g transform="translate(198.02016 295.03104)">
     <text>
      <tspan x="7.371094" y="-0.859375" style="font-size: 12px; font-family: 'DejaVu Sans'">̄</tspan>
      <tspan x="8.884766" y="-0.875" style="font-size: 12px; font-family: 'DejaVu Sans'">=</tspan>
      <tspan x="30.716797" y="-0.875" style="font-size: 12px; font-family: 'DejaVu Sans'">−</tspan>
      <tspan x="43.109375" y="-0.875" style="font-size: 12px; font-family: 'DejaVu Sans'">i</tspan>
      <tspan x="0" y="-0.875" style="font-style: oblique; font-size: 12px; font-family: 'DejaVu Sans'">z</tspan>
      <tspan x="21.277344" y="-0.875" style="font-style: oblique; font-size: 12px; font-family: 'DejaVu Sans'">x</tspan>
      <tspan x="46.443359" y="-0.875" style="font-style: oblique; font-size: 12px; font-family: 'DejaVu Sans'">y</tspan>
     </text>
    </g>
   </g>
   <g id="patch_7">
    <path d="M 46.3548 172.296 
Q 118.704 118.704 188.537668 66.975357 
" clip-path="url(#pa393b3a5a9)" style="fill: none; stroke: #8e6f3e; stroke-width: 2.8; stroke-linecap: round"/>
    <path d="M 181.490174 68.21343 
L 188.537668 66.975357 
L 185.29963 73.356196 
z
" clip-path="url(#pa393b3a5a9)" style="fill: #8e6f3e; stroke: #8e6f3e; stroke-width: 2.8; stroke-linecap: round"/>
   </g>
   <g id="patch_8">
    <path d="M 46.3548 172.296 
Q 118.704 225.888 188.537668 277.616643 
" clip-path="url(#pa393b3a5a9)" style="fill: none; stroke: #4f6d7a; stroke-width: 2.8; stroke-linecap: round"/>
    <path d="M 185.29963 271.235804 
L 188.537668 277.616643 
L 181.490174 276.37857 
z
" clip-path="url(#pa393b3a5a9)" style="fill: #4f6d7a; stroke: #4f6d7a; stroke-width: 2.8; stroke-linecap: round"/>
   </g>
   <g id="PathCollection_1">
    <defs>
     <path id="C0_0_ae60bd0acd" d="M 0 3.278719 
C 0.869527 3.278719 1.703557 2.933253 2.318405 2.318405 
C 2.933253 1.703557 3.278719 0.869527 3.278719 -0 
C 3.278719 -0.869527 2.933253 -1.703557 2.318405 -2.318405 
C 1.703557 -2.933253 0.869527 -3.278719 0 -3.278719 
C -0.869527 -3.278719 -1.703557 -2.933253 -2.318405 -2.318405 
C -2.933253 -1.703557 -3.278719 -0.869527 -3.278719 0 
C -3.278719 0.869527 -2.933253 1.703557 -2.318405 2.318405 
C -1.703557 2.933253 -0.869527 3.278719 0 3.278719 
z
"/>
    </defs>
    <g clip-path="url(#pa393b3a5a9)">
     <use xlink:href="#C0_0_ae60bd0acd" x="191.0532" y="65.112" style="fill: #8e6f3e; stroke: #8e6f3e"/>
    </g>
    <g clip-path="url(#pa393b3a5a9)">
     <use xlink:href="#C0_0_ae60bd0acd" x="191.0532" y="279.48" style="fill: #4f6d7a; stroke: #4f6d7a"/>
    </g>
   </g>
  </g>
 </g>
 <defs>
  <clipPath id="pa393b3a5a9">
   <rect x="11.52" y="11.52" width="257.2416" height="321.552"/>
  </clipPath>
 </defs>
</svg>
